<svg xmlns="http://www.w3.org/2000/svg" xmlns:xlink="http://www.w3.org/1999/xlink" xmlns:lucid="lucid" width="1060" height="260"><g transform="translate(-300 -160)" lucid:page-tab-id="0_0"><path d="M0 0h1870.87v1322.83H0z" fill="#fff"/><path d="M1100 198.1a6 6 0 0 1 6-6h228a6 6 0 0 1 6 6v63.8a6 6 0 0 1-6 6h-228a6 6 0 0 1-6-6z" stroke="#5e5e5e" stroke-width="3" fill="#fff"/><use xlink:href="#a" transform="matrix(1,0,0,1,1105,197.11111111111111) translate(73.41111111111111 42.27777777777777)"/><path d="M1100 266a6 6 0 0 1 6-6h228a6 6 0 0 1 6 6v108a6 6 0 0 1-6 6h-228a6 6 0 0 1-6-6z" stroke="#5e5e5e" stroke-width="3" fill="#fff"/><use xlink:href="#b" transform="matrix(1,0,0,1,1112,272) translate(7.344444444444444 58.77777777777777)"/><use xlink:href="#c" transform="matrix(1,0,0,1,1112,272) translate(22.22222222222222 58.77777777777777)"/><path d="M720 206a6 6 0 0 1 6-6h208a6 6 0 0 1 6 6v48a6 6 0 0 1-6 6H726a6 6 0 0 1-6-6z" stroke="#5e5e5e" stroke-width="3" fill="#fff"/><use xlink:href="#d" transform="matrix(1,0,0,1,725,205) translate(63.55555555555556 35.15277777777777)"/><path d="M720 266a6 6 0 0 1 6-6h208a6 6 0 0 1 6 6v108a6 6 0 0 1-6 6H726a6 6 0 0 1-6-6z" stroke="#5e5e5e" stroke-width="3" fill="#fff"/><use xlink:href="#b" transform="matrix(1,0,0,1,725,265) translate(7.344444444444444 46.40277777777777)"/><use xlink:href="#e" transform="matrix(1,0,0,1,725,265) translate(22.22222222222222 46.40277777777777)"/><use xlink:href="#b" transform="matrix(1,0,0,1,725,265) translate(7.344444444444444 79.29166666666666)"/><use xlink:href="#c" transform="matrix(1,0,0,1,725,265) translate(22.22222222222222 79.29166666666666)"/><path d="M320 186a6 6 0 0 1 6-6h228a6 6 0 0 1 6 6v48a6 6 0 0 1-6 6H326a6 6 0 0 1-6-6z" stroke="#5e5e5e" stroke-width="3" fill="#fff"/><use xlink:href="#f" transform="matrix(1,0,0,1,325,185) translate(76.82222222222222 35.34027777777777)"/><path d="M320 246a6 6 0 0 1 6-6h228a6 6 0 0 1 6 6v148a6 6 0 0 1-6 6H326a6 6 0 0 1-6-6z" stroke="#5e5e5e" stroke-width="3" fill="#fff"/><use xlink:href="#b" transform="matrix(1,0,0,1,325,245) translate(7.344444444444444 67.96527777777777)"/><use xlink:href="#g" transform="matrix(1,0,0,1,325,245) translate(22.22222222222222 67.96527777777777)"/><use xlink:href="#h" transform="matrix(1,0,0,1,325,245) translate(93.84444444444443 67.96527777777777)"/><use xlink:href="#b" transform="matrix(1,0,0,1,325,245) translate(7.344444444444444 100.85416666666666)"/><use xlink:href="#i" transform="matrix(1,0,0,1,325,245) translate(22.22222222222222 100.85416666666666)"/><path d="M562.46 320H687.8" stroke="#5e5e5e" stroke-width="2" fill="none"/><path d="M562.5 321h-1.04v-2h1.03" fill="#5e5e5e"/><path d="M717.12 320l-14.85 14.85L687.12 320l15.15-14.85z" stroke="#5e5e5e" stroke-width="2" fill="#fff"/><path d="M943.46 320c0 .55-.44 1-1 1-.55 0-1-.45-1-1s.45-1 1-1c.56 0 1 .45 1 1zm4 0c0 .55-.46 1-1 1-.56 0-1-.45-1-1s.44-1 1-1c.54 0 1 .45 1 1zm3.98 0c0 .55-.45 1-1 1s-1-.45-1-1 .45-1 1-1 1 .45 1 1zm4 0c0 .55-.46 1-1 1-.57 0-1-.45-1-1s.43-1 1-1c.54 0 1 .45 1 1zm3.97 0c0 .55-.43 1-1 1-.54 0-1-.45-1-1s.46-1 1-1c.57 0 1 .45 1 1zm4 0c0 .55-.45 1-1 1s-1-.45-1-1 .45-1 1-1 1 .45 1 1zm4 0c0 .55-.46 1-1 1-.56 0-1-.45-1-1s.44-1 1-1c.54 0 1 .45 1 1zm3.98 0c0 .55-.45 1-1 1-.56 0-1-.45-1-1s.44-1 1-1c.55 0 1 .45 1 1zm3.98 0c0 .55-.44 1-1 1-.55 0-1-.45-1-1s.45-1 1-1c.56 0 1 .45 1 1zm4 0c0 .55-.46 1-1 1-.56 0-1-.45-1-1s.44-1 1-1c.54 0 1 .45 1 1zm3.98 0c0 .55-.45 1-1 1s-1-.45-1-1 .45-1 1-1 1 .45 1 1zm4 0c0 .55-.46 1-1 1-.57 0-1-.45-1-1s.43-1 1-1c.54 0 1 .45 1 1zm3.97 0c0 .55-.43 1-1 1-.54 0-1-.45-1-1s.46-1 1-1c.57 0 1 .45 1 1zm4 0c0 .55-.45 1-1 1s-1-.45-1-1 .45-1 1-1 1 .45 1 1zm4 0c0 .55-.46 1-1 1-.56 0-1-.45-1-1s.44-1 1-1c.54 0 1 .45 1 1zm3.98 0c0 .55-.45 1-1 1-.56 0-1-.45-1-1s.44-1 1-1c.55 0 1 .45 1 1zm3.98 0c0 .55-.44 1-1 1-.55 0-1-.45-1-1s.45-1 1-1c.56 0 1 .45 1 1zm4 0c0 .55-.46 1-1 1-.56 0-1-.45-1-1s.44-1 1-1c.54 0 1 .45 1 1zm3.98 0c0 .55-.45 1-1 1s-1-.45-1-1 .45-1 1-1 1 .45 1 1zm4 0c0 .55-.46 1-1 1-.56 0-1-.45-1-1s.44-1 1-1c.54 0 1 .45 1 1zm3.98 0c0 .55-.45 1-1 1-.56 0-1-.45-1-1s.44-1 1-1c.55 0 1 .45 1 1zm3.98 0c0 .55-.45 1-1 1s-1-.45-1-1 .45-1 1-1 1 .45 1 1zm4 0c0 .55-.46 1-1 1-.56 0-1-.45-1-1s.44-1 1-1c.54 0 1 .45 1 1zm3.98 0c0 .55-.45 1-1 1s-1-.45-1-1 .45-1 1-1 1 .45 1 1zm4 0c0 .55-.46 1-1 1-.57 0-1-.45-1-1s.43-1 1-1c.54 0 1 .45 1 1zm3.97 0c0 .55-.44 1-1 1-.55 0-1-.45-1-1s.45-1 1-1c.56 0 1 .45 1 1zm4 0c0 .55-.46 1-1 1-.56 0-1-.45-1-1s.44-1 1-1c.54 0 1 .45 1 1zm3.98 0c0 .55-.45 1-1 1s-1-.45-1-1 .45-1 1-1 1 .45 1 1zm4 0c0 .55-.46 1-1 1-.57 0-1-.45-1-1s.43-1 1-1c.54 0 1 .45 1 1zm3.97 0c0 .55-.44 1-1 1-.55 0-1-.45-1-1s.45-1 1-1c.56 0 1 .45 1 1zm4 0c0 .55-.46 1-1 1-.56 0-1-.45-1-1s.44-1 1-1c.54 0 1 .45 1 1zm3.98 0c0 .55-.45 1-1 1s-1-.45-1-1 .45-1 1-1 1 .45 1 1zm4 0c0 .55-.46 1-1 1-.57 0-1-.45-1-1s.43-1 1-1c.54 0 1 .45 1 1zm3.97 0c0 .55-.44 1-1 1-.55 0-1-.45-1-1s.45-1 1-1c.56 0 1 .45 1 1z" fill="#5e5e5e"/><path d="M942.5 321h-1.04v-2h1.03" fill="#5e5e5e"/><path d="M1096.57 320l-21.52 12.73v-25.46z" stroke="#5e5e5e" stroke-width="2" fill="#fff"/><defs><path fill="#333" d="M304 13C200 13 111-29 47-96l55-63c53 55 127 91 203 91 96 0 154-48 154-120 1-113-145-134-228-176-66-33-149-81-149-188 0-113 98-195 231-195 87 0 164 37 216 91l-49 59c-45-42-99-69-167-69-83 0-137 42-137 108 0 112 144 126 226 167 83 42 151 87 151 196 0 116-96 208-249 208" id="j"/><path fill="#333" d="M263 13c-116 0-155-72-155-181v-301H27v-69l85-5 11-152h76v152h147v74H199v303c0 67 21 105 84 105 19 0 44-7 62-14l18 68c-31 10-67 20-100 20" id="k"/><path fill="#333" d="M250 13C136 13 85-61 85-199v-344h91v333c0 101 30 144 102 144 56 0 95-27 147-92v-385h91V0h-76l-7-85h-3c-51 59-105 98-180 98" id="l"/><path fill="#333" d="M277 13C141 13 53-90 53-271c-5-249 231-368 388-222-8-95-4-201-5-303h91V0h-74c-4-21-4-46-11-64-43 42-100 77-165 77zm20-76c50 0 94-25 139-75v-285c-123-120-291-42-289 151 0 131 54 209 150 209" id="m"/><path fill="#333" d="M311 13C167 13 51-92 51-271c0-176 119-286 245-286 154-3 234 132 212 307H142c6 116 77 190 180 190 53 0 96-16 136-43l33 60c-48 31-106 56-180 56zM141-315h291c0-110-50-169-135-169-77 0-145 62-156 169" id="n"/><path fill="#333" d="M92 0v-543h75l8 78h3c52-51 108-92 182-92 114 0 166 74 166 213V0h-91v-332c0-102-31-145-103-145-56 0-94 28-149 83V0H92" id="o"/><g id="a"><use transform="matrix(0.022222222222222223,0,0,0.022222222222222223,0,0)" xlink:href="#j"/><use transform="matrix(0.022222222222222223,0,0,0.022222222222222223,13.266666666666667,0)" xlink:href="#k"/><use transform="matrix(0.022222222222222223,0,0,0.022222222222222223,21.644444444444446,0)" xlink:href="#l"/><use transform="matrix(0.022222222222222223,0,0,0.022222222222222223,35.13333333333333,0)" xlink:href="#m"/><use transform="matrix(0.022222222222222223,0,0,0.022222222222222223,48.91111111111111,0)" xlink:href="#n"/><use transform="matrix(0.022222222222222223,0,0,0.022222222222222223,61.22222222222222,0)" xlink:href="#o"/><use transform="matrix(0.022222222222222223,0,0,0.022222222222222223,74.8,0)" xlink:href="#k"/></g><path fill="#333" d="M170-160c-67 0-125-54-125-134 0-81 58-135 125-135 66 0 125 54 125 135 0 80-59 134-125 134" id="p"/><use transform="matrix(0.022222222222222223,0,0,0.022222222222222223,0,0)" xlink:href="#p" id="b"/><path fill="#333" d="M303 13C170 13 51-91 51-271c0-181 119-286 252-286s252 105 252 286C555-91 436 13 303 13zm0-76c94 0 158-83 158-208s-64-210-158-210-157 85-157 210S209-63 303-63" id="q"/><path fill="#333" d="M92 0v-543h75l8 99h3c50-86 117-137 212-101l-17 80c-18-7-31-9-53-9-45 0-101 32-137 125V0H92" id="r"/><path fill="#333" d="M275 250c-133 0-225-52-225-146 0-46 30-90 81-123v-4c-29-17-50-46-50-89 0-45 33-81 61-101v-4c-36-29-71-81-71-146-2-145 144-228 280-180h189v70H429c26 25 44 65 44 112 4 144-147 228-279 170-52 42-57 131 60 124h106c126 0 189 40 189 129 0 101-106 188-274 188zm0-484c62 0 115-50 115-129s-51-127-115-127-116 47-116 127c0 79 53 129 116 129zm13 422c104 0 173-55 173-112 0-103-183-49-275-76-106 75-57 194 102 188" id="s"/><path fill="#333" d="M217 13C126 13 58-43 58-141c0-118 103-177 334-203 0-70-23-137-112-137-63 0-120 29-163 58l-36-63c50-32 127-71 214-71 132 0 188 89 188 223V0h-75l-8-65h-3c-52 43-113 78-180 78zm26-73c53 0 96-25 149-72v-152c-183 22-245 67-245 137 0 62 42 87 96 87" id="t"/><path fill="#333" d="M92 0v-543h91V0H92zm46-655c-36 0-63-25-63-59 0-37 27-59 63-59s63 22 63 59c0 34-27 59-63 59" id="u"/><path fill="#333" d="M35 0v-49l286-420H66v-74h370v49L150-74h296V0H35" id="v"/><path fill="#333" d="M377 13C195 13 58-128 58-366c0-237 139-381 325-381 89 0 159 44 201 91l-50 60c-38-41-87-70-150-70-139 0-231 114-231 297 0 185 88 301 228 301 70 0 123-31 170-82l51 58C544-25 472 13 377 13" id="w"/><path fill="#333" d="M241 5C155 32 92-8 92-108v-688h91v694c3 37 15 43 45 37" id="x"/><path fill="#333" d="M234 13C157 13 83-19 31-62l45-60c47 38 96 64 161 64 72 0 107-38 107-85 0-55-64-80-124-103-76-28-162-65-162-157 0-86 69-154 187-154 67 0 126 28 169 61l-44 59c-38-28-76-48-125-48-68 0-99 36-99 78 0 52 59 71 120 94 79 30 166 62 166 165 0 88-70 161-198 161" id="y"/><path fill="#333" d="M239 197C147 47 92-114 92-311c0-196 55-358 147-507l57 26c-171 284-171 678 0 962" id="z"/><path fill="#333" d="M99 197l-56-27c171-284 171-678 0-962l56-26c93 149 148 311 148 507 0 197-55 358-148 508" id="A"/><g id="c"><use transform="matrix(0.022222222222222223,0,0,0.022222222222222223,0,0)" xlink:href="#q"/><use transform="matrix(0.022222222222222223,0,0,0.022222222222222223,13.466666666666667,0)" xlink:href="#r"/><use transform="matrix(0.022222222222222223,0,0,0.022222222222222223,22.08888888888889,0)" xlink:href="#s"/><use transform="matrix(0.022222222222222223,0,0,0.022222222222222223,34.6,0)" xlink:href="#t"/><use transform="matrix(0.022222222222222223,0,0,0.022222222222222223,47.13333333333333,0)" xlink:href="#o"/><use transform="matrix(0.022222222222222223,0,0,0.022222222222222223,60.711111111111116,0)" xlink:href="#u"/><use transform="matrix(0.022222222222222223,0,0,0.022222222222222223,66.82222222222222,0)" xlink:href="#v"/><use transform="matrix(0.022222222222222223,0,0,0.022222222222222223,77.35555555555555,0)" xlink:href="#n"/><use transform="matrix(0.022222222222222223,0,0,0.022222222222222223,89.66666666666667,0)" xlink:href="#w"/><use transform="matrix(0.022222222222222223,0,0,0.022222222222222223,103.84444444444445,0)" xlink:href="#x"/><use transform="matrix(0.022222222222222223,0,0,0.022222222222222223,110.17777777777778,0)" xlink:href="#t"/><use transform="matrix(0.022222222222222223,0,0,0.022222222222222223,122.71111111111112,0)" xlink:href="#y"/><use transform="matrix(0.022222222222222223,0,0,0.022222222222222223,133.11111111111111,0)" xlink:href="#y"/><use transform="matrix(0.022222222222222223,0,0,0.022222222222222223,143.51111111111112,0)" xlink:href="#z"/><use transform="matrix(0.022222222222222223,0,0,0.022222222222222223,151.02222222222224,0)" xlink:href="#A"/></g><path fill="#333" d="M191-298h222c-37-120-75-237-109-360h-4c-33 124-71 241-109 360zM506 0l-70-224H168L97 0H3l249-733h103L604 0h-98" id="B"/><path fill="#333" d="M92 229v-772h75l8 62h3c49-40 110-76 173-76 140 0 216 110 216 277C567-22 349 94 181-50c3 91 2 185 2 279H92zm91-349C317-1 471-73 472-279c0-120-40-201-143-201-46 0-93 26-146 75v285" id="C"/><g id="d"><use transform="matrix(0.022222222222222223,0,0,0.022222222222222223,0,0)" xlink:href="#B"/><use transform="matrix(0.022222222222222223,0,0,0.022222222222222223,13.488888888888889,0)" xlink:href="#m"/><use transform="matrix(0.022222222222222223,0,0,0.022222222222222223,27.26666666666667,0)" xlink:href="#t"/><use transform="matrix(0.022222222222222223,0,0,0.022222222222222223,39.8,0)" xlink:href="#C"/><use transform="matrix(0.022222222222222223,0,0,0.022222222222222223,53.57777777777778,0)" xlink:href="#k"/><use transform="matrix(0.022222222222222223,0,0,0.022222222222222223,61.955555555555556,0)" xlink:href="#n"/><use transform="matrix(0.022222222222222223,0,0,0.022222222222222223,74.26666666666667,0)" xlink:href="#r"/></g><path fill="#333" d="M92 0v-796h91c0 111 1 223-3 330 50-50 106-91 180-91 114 0 166 74 166 213V0h-91v-332c0-102-31-145-103-145-56 0-94 28-149 83V0H92" id="D"/><path fill="#333" d="M92 0v-543h75l8 79h3c47-52 104-93 169-93 83 0 128 40 150 104 56-61 113-104 179-104 112 0 165 74 165 213V0h-91v-332c0-102-32-145-101-145-42 0-86 27-137 83V0h-91v-332c0-102-32-145-101-145-41 0-87 27-137 83V0H92" id="E"/><g id="e"><use transform="matrix(0.022222222222222223,0,0,0.022222222222222223,0,0)" xlink:href="#D"/><use transform="matrix(0.022222222222222223,0,0,0.022222222222222223,13.488888888888889,0)" xlink:href="#l"/><use transform="matrix(0.022222222222222223,0,0,0.022222222222222223,26.977777777777778,0)" xlink:href="#E"/><use transform="matrix(0.022222222222222223,0,0,0.022222222222222223,47.55555555555556,0)" xlink:href="#t"/><use transform="matrix(0.022222222222222223,0,0,0.022222222222222223,60.08888888888889,0)" xlink:href="#o"/><use transform="matrix(0.022222222222222223,0,0,0.022222222222222223,73.66666666666667,0)" xlink:href="#z"/><use transform="matrix(0.022222222222222223,0,0,0.022222222222222223,81.17777777777778,0)" xlink:href="#A"/></g><path fill="#333" d="M100 0v-733h93v307h342v-307h92V0h-92v-346H193V0h-93" id="F"/><g id="f"><use transform="matrix(0.022222222222222223,0,0,0.022222222222222223,0,0)" xlink:href="#F"/><use transform="matrix(0.022222222222222223,0,0,0.022222222222222223,16.177777777777777,0)" xlink:href="#l"/><use transform="matrix(0.022222222222222223,0,0,0.022222222222222223,29.666666666666664,0)" xlink:href="#E"/><use transform="matrix(0.022222222222222223,0,0,0.022222222222222223,50.24444444444443,0)" xlink:href="#t"/><use transform="matrix(0.022222222222222223,0,0,0.022222222222222223,62.77777777777777,0)" xlink:href="#o"/></g><path fill="#333" d="M139-390c-36 0-66-29-66-69 0-42 30-71 66-71s66 29 66 71c0 40-30 69-66 69zm0 403c-36 0-66-28-66-69s30-71 66-71 66 30 66 71-30 69-66 69" id="G"/><g id="g"><use transform="matrix(0.022222222222222223,0,0,0.022222222222222223,0,0)" xlink:href="#o"/><use transform="matrix(0.022222222222222223,0,0,0.022222222222222223,13.577777777777778,0)" xlink:href="#t"/><use transform="matrix(0.022222222222222223,0,0,0.022222222222222223,26.11111111111111,0)" xlink:href="#E"/><use transform="matrix(0.022222222222222223,0,0,0.022222222222222223,46.68888888888889,0)" xlink:href="#n"/><use transform="matrix(0.022222222222222223,0,0,0.022222222222222223,59,0)" xlink:href="#G"/></g><g id="h"><use transform="matrix(0.022222222222222223,0,0,0.022222222222222223,0,0)" xlink:href="#y"/><use transform="matrix(0.022222222222222223,0,0,0.022222222222222223,10.4,0)" xlink:href="#k"/><use transform="matrix(0.022222222222222223,0,0,0.022222222222222223,18.77777777777778,0)" xlink:href="#r"/><use transform="matrix(0.022222222222222223,0,0,0.022222222222222223,27.400000000000002,0)" xlink:href="#u"/><use transform="matrix(0.022222222222222223,0,0,0.022222222222222223,33.51111111111111,0)" xlink:href="#o"/><use transform="matrix(0.022222222222222223,0,0,0.022222222222222223,47.08888888888889,0)" xlink:href="#s"/></g><g id="i"><use transform="matrix(0.022222222222222223,0,0,0.022222222222222223,0,0)" xlink:href="#q"/><use transform="matrix(0.022222222222222223,0,0,0.022222222222222223,13.466666666666667,0)" xlink:href="#k"/><use transform="matrix(0.022222222222222223,0,0,0.022222222222222223,21.844444444444445,0)" xlink:href="#D"/><use transform="matrix(0.022222222222222223,0,0,0.022222222222222223,35.333333333333336,0)" xlink:href="#n"/><use transform="matrix(0.022222222222222223,0,0,0.022222222222222223,47.644444444444446,0)" xlink:href="#r"/><use transform="matrix(0.022222222222222223,0,0,0.022222222222222223,56.266666666666666,0)" xlink:href="#E"/><use transform="matrix(0.022222222222222223,0,0,0.022222222222222223,76.84444444444445,0)" xlink:href="#n"/><use transform="matrix(0.022222222222222223,0,0,0.022222222222222223,89.15555555555557,0)" xlink:href="#k"/><use transform="matrix(0.022222222222222223,0,0,0.022222222222222223,97.53333333333333,0)" xlink:href="#D"/><use transform="matrix(0.022222222222222223,0,0,0.022222222222222223,111.02222222222224,0)" xlink:href="#q"/><use transform="matrix(0.022222222222222223,0,0,0.022222222222222223,124.48888888888891,0)" xlink:href="#m"/><use transform="matrix(0.022222222222222223,0,0,0.022222222222222223,138.26666666666668,0)" xlink:href="#z"/><use transform="matrix(0.022222222222222223,0,0,0.022222222222222223,145.7777777777778,0)" xlink:href="#A"/></g></defs></g></svg>