<svg xmlns="http://www.w3.org/2000/svg" xmlns:xlink="http://www.w3.org/1999/xlink" xmlns:lucid="lucid" width="620" height="320"><g transform="translate(-240 -160)" lucid:page-tab-id="0_0"><path d="M0 0h1870.87v1322.83H0z" fill="#fff"/><path d="M260 206c0-3.3 2.7-6 6-6h148c3.3 0 6 2.7 6 6v48c0 3.3-2.7 6-6 6H266c-3.3 0-6-2.7-6-6z" stroke="#5e5e5e" stroke-width="3" fill="#fff"/><use xlink:href="#a" transform="matrix(1,0,0,1,272,212) translate(20.12222222222222 25.777777777777775)"/><path d="M620 186c0-3.3 2.7-6 6-6h208c3.3 0 6 2.7 6 6v48c0 3.3-2.7 6-6 6H626c-3.3 0-6-2.7-6-6z" stroke="#5e5e5e" stroke-width="3" fill="#fff"/><use xlink:href="#b" transform="matrix(1,0,0,1,632,192) translate(10.199999999999989 25.777777777777775)"/><path d="M620 246c0-3.3 2.7-6 6-6h208c3.3 0 6 2.7 6 6v88c0 3.3-2.7 6-6 6H626c-3.3 0-6-2.7-6-6z" stroke="#5e5e5e" stroke-width="3" fill="#fff"/><use xlink:href="#c" transform="matrix(1,0,0,1,632,251.99999999999997) translate(74.55555555555556 25.777777777777775)"/><use xlink:href="#d" transform="matrix(1,0,0,1,632,251.99999999999997) translate(49.666666666666664 58.66666666666666)"/><path d="M620 346c0-3.3 2.7-6 6-6h208c3.3 0 6 2.7 6 6v108c0 3.3-2.7 6-6 6H626c-3.3 0-6-2.7-6-6z" stroke="#5e5e5e" stroke-width="3" fill="#fff"/><use xlink:href="#e" transform="matrix(1,0,0,1,632,352) translate(37.099999999999994 40.77777777777777)"/><use xlink:href="#f" transform="matrix(1,0,0,1,632,352) translate(30.15555555555555 73.66666666666666)"/><path d="M422.5 230H514c3.3 0 6 2.7 6 6v103.8c0 3.3 2.7 6 6 6h61.75" stroke="#5e5e5e" stroke-width="2" fill="none"/><path d="M422.53 231h-1.03v-2h1.03" fill="#5e5e5e"/><path d="M617.1 345.8l-14.86 14.85-15.15-14.85 15.14-14.85z" stroke="#5e5e5e" stroke-width="2" fill="#fff"/><defs><path fill="#333" d="M356-791l-20 69c-75-34-144-8-138 93v86h115v74H198V0h-91v-469H33v-69l74-5v-87c0-110 50-179 158-179 33 0 65 7 91 18" id="g"/><path fill="#333" d="M241 5C155 32 92-8 92-108v-688h91v694c3 37 15 43 45 37" id="h"/><path fill="#333" d="M303 45C261 172 181 266 37 223l18-73C155 188 210 96 231 1L13-543h95c55 152 111 298 163 454h5c45-155 95-303 143-454h89" id="i"/><path fill="#333" d="M178 0L27-543h93c39 154 83 304 113 466h5c36-159 81-311 121-466h89c41 154 85 308 123 466h4c34-159 75-312 114-466h86L629 0H519c-39-150-82-293-116-449h-5C365-294 323-150 285 0H178" id="j"/><path fill="#333" d="M311 13C167 13 51-92 51-271c0-176 119-286 245-286 154-3 234 132 212 307H142c6 116 77 190 180 190 53 0 96-16 136-43l33 60c-48 31-106 56-180 56zM141-315h291c0-110-50-169-135-169-77 0-145 62-156 169" id="k"/><path fill="#333" d="M92 0v-543h91V0H92zm46-655c-36 0-63-25-63-59 0-37 27-59 63-59s63 22 63 59c0 34-27 59-63 59" id="l"/><path fill="#333" d="M275 250c-133 0-225-52-225-146 0-46 30-90 81-123v-4c-29-17-50-46-50-89 0-45 33-81 61-101v-4c-36-29-71-81-71-146-2-145 144-228 280-180h189v70H429c26 25 44 65 44 112 4 144-147 228-279 170-52 42-57 131 60 124h106c126 0 189 40 189 129 0 101-106 188-274 188zm0-484c62 0 115-50 115-129s-51-127-115-127-116 47-116 127c0 79 53 129 116 129zm13 422c104 0 173-55 173-112 0-103-183-49-275-76-106 75-57 194 102 188" id="m"/><path fill="#333" d="M92 0v-796h91c0 111 1 223-3 330 50-50 106-91 180-91 114 0 166 74 166 213V0h-91v-332c0-102-31-145-103-145-56 0-94 28-149 83V0H92" id="n"/><path fill="#333" d="M263 13c-116 0-155-72-155-181v-301H27v-69l85-5 11-152h76v152h147v74H199v303c0 67 21 105 84 105 19 0 44-7 62-14l18 68c-31 10-67 20-100 20" id="o"/><g id="a"><use transform="matrix(0.022222222222222223,0,0,0.022222222222222223,0,0)" xlink:href="#g"/><use transform="matrix(0.022222222222222223,0,0,0.022222222222222223,7.222222222222222,0)" xlink:href="#h"/><use transform="matrix(0.022222222222222223,0,0,0.022222222222222223,13.555555555555555,0)" xlink:href="#i"/><use transform="matrix(0.022222222222222223,0,0,0.022222222222222223,25.133333333333333,0)" xlink:href="#j"/><use transform="matrix(0.022222222222222223,0,0,0.022222222222222223,42.955555555555556,0)" xlink:href="#k"/><use transform="matrix(0.022222222222222223,0,0,0.022222222222222223,55.266666666666666,0)" xlink:href="#l"/><use transform="matrix(0.022222222222222223,0,0,0.022222222222222223,61.37777777777778,0)" xlink:href="#m"/><use transform="matrix(0.022222222222222223,0,0,0.022222222222222223,73.88888888888889,0)" xlink:href="#n"/><use transform="matrix(0.022222222222222223,0,0,0.022222222222222223,87.37777777777778,0)" xlink:href="#o"/></g><path fill="#333" d="M181 0L25-733h96c41 211 82 422 120 636h4c45-218 101-426 154-636h84c53 211 111 415 155 636h5c37-216 78-424 119-636h89L699 0H588c-49-202-105-400-147-609h-4C393-402 340-202 291 0H181" id="p"/><path fill="#333" d="M100 0v-733h423v78H193v248h280v78H193V0h-93" id="q"/><path fill="#333" d="M217 13C126 13 58-43 58-141c0-118 103-177 334-203 0-70-23-137-112-137-63 0-120 29-163 58l-36-63c50-32 127-71 214-71 132 0 188 89 188 223V0h-75l-8-65h-3c-52 43-113 78-180 78zm26-73c53 0 96-25 149-72v-152c-183 22-245 67-245 137 0 62 42 87 96 87" id="r"/><path fill="#333" d="M306 13C162 13 51-91 51-271c0-181 123-286 262-286 71 0 120 30 159 64l-47 61c-32-29-65-49-109-49-98 0-170 85-170 210S214-63 314-63c50 0 94-23 128-54l39 61c-48 44-110 69-175 69" id="s"/><path fill="#333" d="M303 13C170 13 51-91 51-271c0-181 119-286 252-286s252 105 252 286C555-91 436 13 303 13zm0-76c94 0 158-83 158-208s-64-210-158-210-157 85-157 210S209-63 303-63" id="t"/><path fill="#333" d="M92 0v-543h75l8 99h3c50-86 117-137 212-101l-17 80c-18-7-31-9-53-9-45 0-101 32-137 125V0H92" id="u"/><g id="b"><use transform="matrix(0.022222222222222223,0,0,0.022222222222222223,0,0)" xlink:href="#g"/><use transform="matrix(0.022222222222222223,0,0,0.022222222222222223,7.222222222222222,0)" xlink:href="#h"/><use transform="matrix(0.022222222222222223,0,0,0.022222222222222223,13.555555555555555,0)" xlink:href="#i"/><use transform="matrix(0.022222222222222223,0,0,0.022222222222222223,25.133333333333333,0)" xlink:href="#p"/><use transform="matrix(0.022222222222222223,0,0,0.022222222222222223,44.644444444444446,0)" xlink:href="#k"/><use transform="matrix(0.022222222222222223,0,0,0.022222222222222223,56.955555555555556,0)" xlink:href="#l"/><use transform="matrix(0.022222222222222223,0,0,0.022222222222222223,63.06666666666667,0)" xlink:href="#m"/><use transform="matrix(0.022222222222222223,0,0,0.022222222222222223,75.57777777777778,0)" xlink:href="#n"/><use transform="matrix(0.022222222222222223,0,0,0.022222222222222223,89.06666666666668,0)" xlink:href="#o"/><use transform="matrix(0.022222222222222223,0,0,0.022222222222222223,97.44444444444444,0)" xlink:href="#q"/><use transform="matrix(0.022222222222222223,0,0,0.022222222222222223,109.71111111111111,0)" xlink:href="#r"/><use transform="matrix(0.022222222222222223,0,0,0.022222222222222223,122.24444444444445,0)" xlink:href="#s"/><use transform="matrix(0.022222222222222223,0,0,0.022222222222222223,133.55555555555557,0)" xlink:href="#o"/><use transform="matrix(0.022222222222222223,0,0,0.022222222222222223,141.93333333333334,0)" xlink:href="#t"/><use transform="matrix(0.022222222222222223,0,0,0.022222222222222223,155.4,0)" xlink:href="#u"/><use transform="matrix(0.022222222222222223,0,0,0.022222222222222223,164.02222222222224,0)" xlink:href="#i"/></g><path fill="#333" d="M92 0v-543h75l8 79h3c47-52 104-93 169-93 83 0 128 40 150 104 56-61 113-104 179-104 112 0 165 74 165 213V0h-91v-332c0-102-32-145-101-145-42 0-86 27-137 83V0h-91v-332c0-102-32-145-101-145-41 0-87 27-137 83V0H92" id="v"/><path fill="#333" d="M92 229v-772h75l8 62h3c49-40 110-76 173-76 140 0 216 110 216 277C567-22 349 94 181-50c3 91 2 185 2 279H92zm91-349C317-1 471-73 472-279c0-120-40-201-143-201-46 0-93 26-146 75v285" id="w"/><g id="c"><use transform="matrix(0.022222222222222223,0,0,0.022222222222222223,0,0)" xlink:href="#v"/><use transform="matrix(0.022222222222222223,0,0,0.022222222222222223,20.57777777777778,0)" xlink:href="#r"/><use transform="matrix(0.022222222222222223,0,0,0.022222222222222223,33.111111111111114,0)" xlink:href="#w"/></g><path fill="#333" d="M234 13C157 13 83-19 31-62l45-60c47 38 96 64 161 64 72 0 107-38 107-85 0-55-64-80-124-103-76-28-162-65-162-157 0-86 69-154 187-154 67 0 126 28 169 61l-44 59c-38-28-76-48-125-48-68 0-99 36-99 78 0 52 59 71 120 94 79 30 166 62 166 165 0 88-70 161-198 161" id="x"/><path fill="#333" d="M92 0v-543h75l8 78h3c52-51 108-92 182-92 114 0 166 74 166 213V0h-91v-332c0-102-31-145-103-145-56 0-94 28-149 83V0H92" id="y"/><g id="d"><use transform="matrix(0.022222222222222223,0,0,0.022222222222222223,0,0)" xlink:href="#x"/><use transform="matrix(0.022222222222222223,0,0,0.022222222222222223,10.4,0)" xlink:href="#l"/><use transform="matrix(0.022222222222222223,0,0,0.022222222222222223,16.511111111111113,0)" xlink:href="#y"/><use transform="matrix(0.022222222222222223,0,0,0.022222222222222223,30.08888888888889,0)" xlink:href="#m"/><use transform="matrix(0.022222222222222223,0,0,0.022222222222222223,42.6,0)" xlink:href="#h"/><use transform="matrix(0.022222222222222223,0,0,0.022222222222222223,48.93333333333334,0)" xlink:href="#k"/><use transform="matrix(0.022222222222222223,0,0,0.022222222222222223,61.24444444444445,0)" xlink:href="#o"/><use transform="matrix(0.022222222222222223,0,0,0.022222222222222223,69.62222222222222,0)" xlink:href="#t"/><use transform="matrix(0.022222222222222223,0,0,0.022222222222222223,83.08888888888889,0)" xlink:href="#y"/></g><path fill="#333" d="M100 0v-733h93V0h-93" id="z"/><g id="e"><use transform="matrix(0.022222222222222223,0,0,0.022222222222222223,0,0)" xlink:href="#m"/><use transform="matrix(0.022222222222222223,0,0,0.022222222222222223,12.511111111111111,0)" xlink:href="#k"/><use transform="matrix(0.022222222222222223,0,0,0.022222222222222223,24.822222222222223,0)" xlink:href="#o"/><use transform="matrix(0.022222222222222223,0,0,0.022222222222222223,33.2,0)" xlink:href="#z"/><use transform="matrix(0.022222222222222223,0,0,0.022222222222222223,39.711111111111116,0)" xlink:href="#y"/><use transform="matrix(0.022222222222222223,0,0,0.022222222222222223,53.28888888888889,0)" xlink:href="#x"/><use transform="matrix(0.022222222222222223,0,0,0.022222222222222223,63.68888888888889,0)" xlink:href="#o"/><use transform="matrix(0.022222222222222223,0,0,0.022222222222222223,72.06666666666666,0)" xlink:href="#r"/><use transform="matrix(0.022222222222222223,0,0,0.022222222222222223,84.6,0)" xlink:href="#y"/><use transform="matrix(0.022222222222222223,0,0,0.022222222222222223,98.17777777777778,0)" xlink:href="#s"/><use transform="matrix(0.022222222222222223,0,0,0.022222222222222223,109.4888888888889,0)" xlink:href="#k"/></g><g id="f"><use transform="matrix(0.022222222222222223,0,0,0.022222222222222223,0,0)" xlink:href="#m"/><use transform="matrix(0.022222222222222223,0,0,0.022222222222222223,12.511111111111111,0)" xlink:href="#k"/><use transform="matrix(0.022222222222222223,0,0,0.022222222222222223,24.822222222222223,0)" xlink:href="#o"/><use transform="matrix(0.022222222222222223,0,0,0.022222222222222223,33.2,0)" xlink:href="#q"/><use transform="matrix(0.022222222222222223,0,0,0.022222222222222223,45.46666666666667,0)" xlink:href="#h"/><use transform="matrix(0.022222222222222223,0,0,0.022222222222222223,51.800000000000004,0)" xlink:href="#i"/><use transform="matrix(0.022222222222222223,0,0,0.022222222222222223,63.37777777777778,0)" xlink:href="#p"/><use transform="matrix(0.022222222222222223,0,0,0.022222222222222223,82.88888888888889,0)" xlink:href="#k"/><use transform="matrix(0.022222222222222223,0,0,0.022222222222222223,95.2,0)" xlink:href="#l"/><use transform="matrix(0.022222222222222223,0,0,0.022222222222222223,101.31111111111112,0)" xlink:href="#m"/><use transform="matrix(0.022222222222222223,0,0,0.022222222222222223,113.82222222222222,0)" xlink:href="#n"/><use transform="matrix(0.022222222222222223,0,0,0.022222222222222223,127.31111111111112,0)" xlink:href="#o"/></g></defs></g></svg>