<svg xmlns="http://www.w3.org/2000/svg" xmlns:xlink="http://www.w3.org/1999/xlink" xmlns:lucid="lucid" width="760" height="480"><g transform="translate(-140 -200)" lucid:page-tab-id="0_0"><path d="M0 0h1870.87v1322.83H0z" fill="#fff"/><path d="M640 226a6 6 0 0 1 6-6h148a6 6 0 0 1 6 6v48a6 6 0 0 1-6 6H646a6 6 0 0 1-6-6z" stroke="#5e5e5e" stroke-width="3" fill="#fff"/><use xlink:href="#a" transform="matrix(1,0,0,1,652,232) translate(28.78888888888889 25.777777777777775)"/><path d="M220 226a6 6 0 0 1 6-6h148a6 6 0 0 1 6 6v48a6 6 0 0 1-6 6H226a6 6 0 0 1-6-6z" stroke="#5e5e5e" stroke-width="3" fill="#fff"/><use xlink:href="#b" transform="matrix(1,0,0,1,232,232) translate(15.888888888888886 25.777777777777775)"/><path d="M382.46 250h237.57" stroke="#5e5e5e" stroke-width="2" fill="none"/><path d="M382.5 251h-1.03v-2h1.02" fill="#5e5e5e"/><path d="M635.3 250l-14.27 4.64v-9.28z" stroke="#5e5e5e" stroke-width="2" fill="#5e5e5e"/><path d="M390 246a6 6 0 0 1 6-6h228a6 6 0 0 1 6 6v48a6 6 0 0 1-6 6H396a6 6 0 0 1-6-6z" stroke="#000" stroke-opacity="0" stroke-width="3" fill="#fff" fill-opacity="0"/><use xlink:href="#c" transform="matrix(1,0,0,1,395,245) translate(69.93333333333334 35.15277777777777)"/><path d="M220 286a6 6 0 0 1 6-6h148a6 6 0 0 1 6 6v108a6 6 0 0 1-6 6H226a6 6 0 0 1-6-6z" stroke="#5e5e5e" stroke-width="3" fill="#fff"/><use xlink:href="#a" transform="matrix(1,0,0,1,232,292) translate(28.78888888888889 58.77777777777777)"/><path d="M640 286a6 6 0 0 1 6-6h148a6 6 0 0 1 6 6v108a6 6 0 0 1-6 6H646a6 6 0 0 1-6-6z" stroke="#5e5e5e" stroke-width="3" fill="#fff"/><use xlink:href="#d" transform="matrix(1,0,0,1,645,285) translate(7.344444444444444 46.40277777777777)"/><use xlink:href="#e" transform="matrix(1,0,0,1,645,285) translate(22.22222222222222 46.40277777777777)"/><use xlink:href="#d" transform="matrix(1,0,0,1,645,285) translate(7.344444444444444 79.29166666666666)"/><use xlink:href="#f" transform="matrix(1,0,0,1,645,285) translate(22.22222222222222 79.29166666666666)"/><path d="M301 497.54c0 .55-.45 1-1 1s-1-.45-1-1c0-.56.45-1 1-1s1 .44 1 1zm0-4.1c0 .57-.45 1-1 1s-1-.43-1-1c0-.54.45-1 1-1s1 .46 1 1zm0-4.07c0 .55-.45 1-1 1s-1-.45-1-1 .45-1 1-1 1 .45 1 1zm0-4.08c0 .54-.45 1-1 1s-1-.46-1-1c0-.56.45-1 1-1s1 .44 1 1zm0-4.1c0 .56-.45 1-1 1s-1-.44-1-1c0-.55.45-1 1-1s1 .45 1 1zm0-4.08c0 .56-.45 1-1 1s-1-.44-1-1c0-.55.45-1 1-1s1 .45 1 1zm0-4.08c0 .55-.45 1-1 1s-1-.45-1-1 .45-1 1-1 1 .45 1 1zm0-4.08c0 .55-.45 1-1 1s-1-.45-1-1 .45-1 1-1 1 .45 1 1zm0-4.08c0 .55-.45 1-1 1s-1-.45-1-1c0-.56.45-1 1-1s1 .44 1 1zm0-4.1c0 .56-.45 1-1 1s-1-.44-1-1c0-.54.45-1 1-1s1 .46 1 1zm0-4.07c0 .56-.45 1-1 1s-1-.44-1-1c0-.54.45-1 1-1s1 .46 1 1zm0-4.07c0 .55-.45 1-1 1s-1-.45-1-1c0-.56.45-1 1-1s1 .44 1 1zm0-4.1c0 .57-.45 1-1 1s-1-.43-1-1c0-.54.45-1 1-1s1 .46 1 1zm0-4.07c0 .55-.45 1-1 1s-1-.45-1-1 .45-1 1-1 1 .45 1 1zm0-4.08c0 .55-.45 1-1 1s-1-.45-1-1 .45-1 1-1 1 .45 1 1zm0-4.08c0 .55-.45 1-1 1s-1-.45-1-1c0-.56.45-1 1-1s1 .44 1 1zm0-4.1c0 .57-.45 1-1 1s-1-.43-1-1c0-.54.45-1 1-1s1 .46 1 1zm0-4.07c0 .55-.45 1-1 1s-1-.45-1-1 .45-1 1-1 1 .45 1 1zm0-4.08c0 .55-.45 1-1 1s-1-.45-1-1 .45-1 1-1 1 .45 1 1zm0-4.08c0 .55-.45 1-1 1s-1-.45-1-1c0-.56.45-1 1-1s1 .44 1 1z" fill="#5e5e5e"/><path d="M301 498.54h-2v-1.03h2" fill="#5e5e5e"/><path d="M300 404.7l4.64 14.27h-9.28z" stroke="#5e5e5e" stroke-width="2" fill="#5e5e5e"/><path d="M160 506a6 6 0 0 1 6-6h268a6 6 0 0 1 6 6v148a6 6 0 0 1-6 6H166a6 6 0 0 1-6-6z" stroke="#5e5e5e" stroke-width="3" fill="#fff"/><use xlink:href="#g" transform="matrix(1,0,0,1,165,505) translate(42.377777777777766 82.02777777777777)"/><path d="M597.54 580H472.2" stroke="#5e5e5e" stroke-width="2" fill="none"/><path d="M598.54 581h-1.03v-2h1.04" fill="#5e5e5e"/><path d="M442.88 580l14.85-14.85L472.88 580l-15.15 14.85z" stroke="#5e5e5e" stroke-width="2" fill="#fff"/><path d="M600 506a6 6 0 0 1 6-6h268a6 6 0 0 1 6 6v148a6 6 0 0 1-6 6H606a6 6 0 0 1-6-6z" stroke="#5e5e5e" stroke-width="3" fill="#fff"/><use xlink:href="#h" transform="matrix(1,0,0,1,605,505) translate(78.56666666666666 82.02777777777777)"/><use xlink:href="#i" transform="matrix(1,0,0,1,605,505) translate(85.0111111111111 82.02777777777777)"/><path d="M741 497.54c0 .55-.45 1-1 1s-1-.45-1-1c0-.56.45-1 1-1s1 .44 1 1zm0-4.1c0 .57-.45 1-1 1s-1-.43-1-1c0-.54.45-1 1-1s1 .46 1 1zm0-4.07c0 .55-.45 1-1 1s-1-.45-1-1 .45-1 1-1 1 .45 1 1zm0-4.08c0 .54-.45 1-1 1s-1-.46-1-1c0-.57.45-1 1-1s1 .43 1 1zm0-4.1c0 .56-.45 1-1 1s-1-.44-1-1c0-.55.45-1 1-1s1 .45 1 1zm0-4.08c0 .55-.45 1-1 1s-1-.45-1-1 .45-1 1-1 1 .45 1 1zm0-4.08c0 .55-.45 1-1 1s-1-.45-1-1 .45-1 1-1 1 .45 1 1zm0-4.1c0 .57-.45 1-1 1s-1-.43-1-1c0-.54.45-1 1-1s1 .46 1 1zm0-4.07c0 .55-.45 1-1 1s-1-.45-1-1 .45-1 1-1 1 .45 1 1zm0-4.08c0 .54-.45 1-1 1s-1-.46-1-1c0-.56.45-1 1-1s1 .44 1 1zm0-4.1c0 .56-.45 1-1 1s-1-.44-1-1c0-.55.45-1 1-1s1 .45 1 1zm0-4.08c0 .55-.45 1-1 1s-1-.45-1-1 .45-1 1-1 1 .45 1 1zm0-4.08c0 .55-.45 1-1 1s-1-.45-1-1 .45-1 1-1 1 .45 1 1zm0-4.1c0 .57-.45 1-1 1s-1-.43-1-1c0-.54.45-1 1-1s1 .46 1 1zm0-4.07c0 .55-.45 1-1 1s-1-.45-1-1 .45-1 1-1 1 .45 1 1zm0-4.08c0 .54-.45 1-1 1s-1-.46-1-1c0-.56.45-1 1-1s1 .44 1 1zm0-4.1c0 .56-.45 1-1 1s-1-.44-1-1c0-.55.45-1 1-1s1 .45 1 1zm0-4.08c0 .55-.45 1-1 1s-1-.45-1-1 .45-1 1-1 1 .45 1 1zm0-4.08c0 .55-.45 1-1 1s-1-.45-1-1 .45-1 1-1 1 .45 1 1z" fill="#5e5e5e"/><path d="M741 498.54h-2v-1.03h2" fill="#5e5e5e"/><path d="M740 404.7l4.64 14.26h-9.28z" stroke="#5e5e5e" stroke-width="2" fill="#5e5e5e"/><defs><path fill="#333" d="M92 0v-543h91V0H92zm46-655c-36 0-63-25-63-59 0-37 27-59 63-59s63 22 63 59c0 34-27 59-63 59" id="j"/><path fill="#333" d="M263 13c-116 0-155-72-155-181v-301H27v-69l85-5 11-152h76v152h147v74H199v303c0 67 21 105 84 105 19 0 44-7 62-14l18 68c-31 10-67 20-100 20" id="k"/><path fill="#333" d="M311 13C167 13 51-92 51-271c0-176 119-286 245-286 154-3 234 132 212 307H142c6 116 77 190 180 190 53 0 96-16 136-43l33 60c-48 31-106 56-180 56zM141-315h291c0-110-50-169-135-169-77 0-145 62-156 169" id="l"/><path fill="#333" d="M92 0v-543h75l8 99h3c50-86 117-137 212-101l-17 80c-18-7-31-9-53-9-45 0-101 32-137 125V0H92" id="m"/><path fill="#333" d="M217 13C126 13 58-43 58-141c0-118 103-177 334-203 0-70-23-137-112-137-63 0-120 29-163 58l-36-63c50-32 127-71 214-71 132 0 188 89 188 223V0h-75l-8-65h-3c-52 43-113 78-180 78zm26-73c53 0 96-25 149-72v-152c-183 22-245 67-245 137 0 62 42 87 96 87" id="n"/><path fill="#333" d="M303 13C170 13 51-91 51-271c0-181 119-286 252-286s252 105 252 286C555-91 436 13 303 13zm0-76c94 0 158-83 158-208s-64-210-158-210-157 85-157 210S209-63 303-63" id="o"/><g id="a"><use transform="matrix(0.022222222222222223,0,0,0.022222222222222223,0,0)" xlink:href="#j"/><use transform="matrix(0.022222222222222223,0,0,0.022222222222222223,6.111111111111112,0)" xlink:href="#k"/><use transform="matrix(0.022222222222222223,0,0,0.022222222222222223,14.488888888888889,0)" xlink:href="#l"/><use transform="matrix(0.022222222222222223,0,0,0.022222222222222223,26.800000000000008,0)" xlink:href="#m"/><use transform="matrix(0.022222222222222223,0,0,0.022222222222222223,35.422222222222224,0)" xlink:href="#n"/><use transform="matrix(0.022222222222222223,0,0,0.022222222222222223,47.955555555555556,0)" xlink:href="#k"/><use transform="matrix(0.022222222222222223,0,0,0.022222222222222223,56.333333333333336,0)" xlink:href="#o"/><use transform="matrix(0.022222222222222223,0,0,0.022222222222222223,69.8,0)" xlink:href="#m"/></g><path fill="#333" d="M275 250c-133 0-225-52-225-146 0-46 30-90 81-123v-4c-29-17-50-46-50-89 0-45 33-81 61-101v-4c-36-29-71-81-71-146-2-145 144-228 280-180h189v70H429c26 25 44 65 44 112 4 144-147 228-279 170-52 42-57 131 60 124h106c126 0 189 40 189 129 0 101-106 188-274 188zm0-484c62 0 115-50 115-129s-51-127-115-127-116 47-116 127c0 79 53 129 116 129zm13 422c104 0 173-55 173-112 0-103-183-49-275-76-106 75-57 194 102 188" id="p"/><g id="b"><use transform="matrix(0.022222222222222223,0,0,0.022222222222222223,0,0)" xlink:href="#n"/><use transform="matrix(0.022222222222222223,0,0,0.022222222222222223,12.533333333333333,0)" xlink:href="#p"/><use transform="matrix(0.022222222222222223,0,0,0.022222222222222223,25.044444444444444,0)" xlink:href="#p"/><use transform="matrix(0.022222222222222223,0,0,0.022222222222222223,37.55555555555556,0)" xlink:href="#m"/><use transform="matrix(0.022222222222222223,0,0,0.022222222222222223,46.17777777777778,0)" xlink:href="#l"/><use transform="matrix(0.022222222222222223,0,0,0.022222222222222223,58.488888888888894,0)" xlink:href="#p"/><use transform="matrix(0.022222222222222223,0,0,0.022222222222222223,71,0)" xlink:href="#n"/><use transform="matrix(0.022222222222222223,0,0,0.022222222222222223,83.53333333333333,0)" xlink:href="#k"/><use transform="matrix(0.022222222222222223,0,0,0.022222222222222223,91.91111111111111,0)" xlink:href="#l"/></g><path fill="#333" d="M517-146L38-334v-73l479-188v79c-129 47-258 95-386 143v4c128 48 257 96 386 143v80" id="q"/><path fill="#333" d="M306 13C162 13 51-91 51-271c0-181 123-286 262-286 71 0 120 30 159 64l-47 61c-32-29-65-49-109-49-98 0-170 85-170 210S214-63 314-63c50 0 94-23 128-54l39 61c-48 44-110 69-175 69" id="r"/><path fill="#333" d="M38-146v-80c129-47 258-95 386-143v-4c-128-48-257-96-386-143v-79l479 188v73" id="s"/><g id="c"><use transform="matrix(0.022222222222222223,0,0,0.022222222222222223,0,0)" xlink:href="#q"/><use transform="matrix(0.022222222222222223,0,0,0.022222222222222223,12.333333333333334,0)" xlink:href="#r"/><use transform="matrix(0.022222222222222223,0,0,0.022222222222222223,23.644444444444446,0)" xlink:href="#m"/><use transform="matrix(0.022222222222222223,0,0,0.022222222222222223,32.266666666666666,0)" xlink:href="#l"/><use transform="matrix(0.022222222222222223,0,0,0.022222222222222223,44.577777777777776,0)" xlink:href="#n"/><use transform="matrix(0.022222222222222223,0,0,0.022222222222222223,57.1111111111111,0)" xlink:href="#k"/><use transform="matrix(0.022222222222222223,0,0,0.022222222222222223,65.48888888888888,0)" xlink:href="#l"/><use transform="matrix(0.022222222222222223,0,0,0.022222222222222223,77.8,0)" xlink:href="#s"/></g><path fill="#333" d="M170-160c-67 0-125-54-125-134 0-81 58-135 125-135 66 0 125 54 125 135 0 80-59 134-125 134" id="t"/><use transform="matrix(0.022222222222222223,0,0,0.022222222222222223,0,0)" xlink:href="#t" id="d"/><path fill="#333" d="M92 0v-796h91c0 111 1 223-3 330 50-50 106-91 180-91 114 0 166 74 166 213V0h-91v-332c0-102-31-145-103-145-56 0-94 28-149 83V0H92" id="u"/><path fill="#333" d="M234 13C157 13 83-19 31-62l45-60c47 38 96 64 161 64 72 0 107-38 107-85 0-55-64-80-124-103-76-28-162-65-162-157 0-86 69-154 187-154 67 0 126 28 169 61l-44 59c-38-28-76-48-125-48-68 0-99 36-99 78 0 52 59 71 120 94 79 30 166 62 166 165 0 88-70 161-198 161" id="v"/><path fill="#333" d="M100 0v-733h96c115 204 239 400 345 613h5c-18-192-10-405-12-613h88V0h-95C412-205 289-402 181-614h-4c17 193 10 407 11 614h-88" id="w"/><path fill="#333" d="M15 0l179-283L29-543h98c43 70 84 140 127 210h4c39-71 77-140 116-210h95L304-274 483 0H383c-48-73-92-149-138-224h-5C197-151 154-74 111 0H15" id="x"/><g id="e"><use transform="matrix(0.022222222222222223,0,0,0.022222222222222223,0,0)" xlink:href="#u"/><use transform="matrix(0.022222222222222223,0,0,0.022222222222222223,13.488888888888889,0)" xlink:href="#n"/><use transform="matrix(0.022222222222222223,0,0,0.022222222222222223,26.022222222222222,0)" xlink:href="#v"/><use transform="matrix(0.022222222222222223,0,0,0.022222222222222223,36.422222222222224,0)" xlink:href="#w"/><use transform="matrix(0.022222222222222223,0,0,0.022222222222222223,52.46666666666667,0)" xlink:href="#l"/><use transform="matrix(0.022222222222222223,0,0,0.022222222222222223,64.77777777777779,0)" xlink:href="#x"/><use transform="matrix(0.022222222222222223,0,0,0.022222222222222223,75.84444444444445,0)" xlink:href="#k"/></g><path fill="#333" d="M92 0v-543h75l8 78h3c52-51 108-92 182-92 114 0 166 74 166 213V0h-91v-332c0-102-31-145-103-145-56 0-94 28-149 83V0H92" id="y"/><g id="f"><use transform="matrix(0.022222222222222223,0,0,0.022222222222222223,0,0)" xlink:href="#y"/><use transform="matrix(0.022222222222222223,0,0,0.022222222222222223,13.577777777777778,0)" xlink:href="#l"/><use transform="matrix(0.022222222222222223,0,0,0.022222222222222223,25.88888888888889,0)" xlink:href="#x"/><use transform="matrix(0.022222222222222223,0,0,0.022222222222222223,36.955555555555556,0)" xlink:href="#k"/></g><path fill="#333" d="M100 0v-733h218c149 0 252 50 252 179 0 73-39 137-108 159v5c88 17 150 75 150 175C612-71 498 0 334 0H100zm93-421h109c126 0 177-47 177-121 0-86-59-118-173-118H193v239zm0 347h128c126 0 200-45 200-144 0-91-72-132-200-132H193v276" id="z"/><path fill="#333" d="M92 0v-796h90c1 179-3 364 2 540l233-287h101L336-325 542 0h-99L284-262 182-143V0H92" id="A"/><path fill="#333" d="M304 13C200 13 111-29 47-96l55-63c53 55 127 91 203 91 96 0 154-48 154-120 1-113-145-134-228-176-66-33-149-81-149-188 0-113 98-195 231-195 87 0 164 37 216 91l-49 59c-45-42-99-69-167-69-83 0-137 42-137 108 0 112 144 126 226 167 83 42 151 87 151 196 0 116-96 208-249 208" id="B"/><path fill="#333" d="M241 5C155 32 92-8 92-108v-688h91v694c3 37 15 43 45 37" id="C"/><path fill="#333" d="M356-791l-20 69c-75-34-144-8-138 93v86h115v74H198V0h-91v-469H33v-69l74-5v-87c0-110 50-179 158-179 33 0 65 7 91 18" id="D"/><path fill="#333" d="M100 0v-733h93V0h-93" id="E"/><g id="g"><use transform="matrix(0.022222222222222223,0,0,0.022222222222222223,0,0)" xlink:href="#z"/><use transform="matrix(0.022222222222222223,0,0,0.022222222222222223,14.600000000000001,0)" xlink:href="#o"/><use transform="matrix(0.022222222222222223,0,0,0.022222222222222223,28.066666666666666,0)" xlink:href="#o"/><use transform="matrix(0.022222222222222223,0,0,0.022222222222222223,41.53333333333334,0)" xlink:href="#A"/><use transform="matrix(0.022222222222222223,0,0,0.022222222222222223,53.800000000000004,0)" xlink:href="#B"/><use transform="matrix(0.022222222222222223,0,0,0.022222222222222223,67.06666666666668,0)" xlink:href="#u"/><use transform="matrix(0.022222222222222223,0,0,0.022222222222222223,80.55555555555557,0)" xlink:href="#l"/><use transform="matrix(0.022222222222222223,0,0,0.022222222222222223,92.86666666666669,0)" xlink:href="#C"/><use transform="matrix(0.022222222222222223,0,0,0.022222222222222223,99.20000000000002,0)" xlink:href="#D"/><use transform="matrix(0.022222222222222223,0,0,0.022222222222222223,106.42222222222225,0)" xlink:href="#E"/><use transform="matrix(0.022222222222222223,0,0,0.022222222222222223,112.93333333333335,0)" xlink:href="#k"/><use transform="matrix(0.022222222222222223,0,0,0.022222222222222223,121.31111111111113,0)" xlink:href="#l"/><use transform="matrix(0.022222222222222223,0,0,0.022222222222222223,133.62222222222223,0)" xlink:href="#m"/><use transform="matrix(0.022222222222222223,0,0,0.022222222222222223,142.24444444444447,0)" xlink:href="#n"/><use transform="matrix(0.022222222222222223,0,0,0.022222222222222223,154.7777777777778,0)" xlink:href="#k"/><use transform="matrix(0.022222222222222223,0,0,0.022222222222222223,163.15555555555557,0)" xlink:href="#o"/><use transform="matrix(0.022222222222222223,0,0,0.022222222222222223,176.62222222222223,0)" xlink:href="#m"/></g><g id="i"><use transform="matrix(0.022222222222222223,0,0,0.022222222222222223,0,0)" xlink:href="#z"/><use transform="matrix(0.022222222222222223,0,0,0.022222222222222223,14.600000000000001,0)" xlink:href="#o"/><use transform="matrix(0.022222222222222223,0,0,0.022222222222222223,28.066666666666666,0)" xlink:href="#o"/><use transform="matrix(0.022222222222222223,0,0,0.022222222222222223,41.53333333333334,0)" xlink:href="#A"/><use transform="matrix(0.022222222222222223,0,0,0.022222222222222223,53.800000000000004,0)" xlink:href="#B"/><use transform="matrix(0.022222222222222223,0,0,0.022222222222222223,67.06666666666668,0)" xlink:href="#u"/><use transform="matrix(0.022222222222222223,0,0,0.022222222222222223,80.55555555555557,0)" xlink:href="#l"/><use transform="matrix(0.022222222222222223,0,0,0.022222222222222223,92.86666666666669,0)" xlink:href="#C"/><use transform="matrix(0.022222222222222223,0,0,0.022222222222222223,99.20000000000002,0)" xlink:href="#D"/></g></defs></g></svg>